<?xml version="1.0" standalone="no"?>
<!DOCTYPE svg PUBLIC "-//W3C//DTD SVG 20010904//EN"
 "http://www.w3.org/TR/2001/REC-SVG-20010904/DTD/svg10.dtd">
<svg version="1.0" xmlns="http://www.w3.org/2000/svg"
 width="1200.000000pt" height="1600.000000pt" viewBox="0 0 1200.000000 1600.000000"
 preserveAspectRatio="xMidYMid meet">
<metadata>
Created by potrace 1.16, written by Peter Selinger 2001-2019
</metadata>
<g transform="translate(0.000000,1600.000000) scale(0.100000,-0.100000)"
fill="#000000" stroke="none">
<path d="M0 8652 l0 -7347 21 -13 c12 -7 24 -11 27 -8 3 3 0 6 -6 6 -16 0 -15
12 4 36 15 18 15 18 9 -4 -5 -15 -2 -22 6 -20 7 2 19 -9 26 -24 8 -16 18 -28
24 -28 10 0 7 85 -4 96 -11 11 -9 96 3 89 6 -3 10 -1 10 4 0 6 9 11 20 11 11
0 20 -6 20 -12 0 -10 3 -9 9 1 5 8 16 11 29 6 19 -5 21 -2 20 29 -1 24 -6 36
-15 36 -8 0 -11 5 -7 12 4 6 -1 17 -11 24 -14 10 -15 17 -7 27 9 10 8 18 -3
33 -15 22 -6 47 16 42 9 -2 13 4 11 20 -4 29 16 29 28 0 5 -13 9 -18 9 -11 1
6 10 9 23 5 14 -3 19 -2 14 6 -4 7 -2 12 4 12 7 0 8 6 1 19 -6 10 -12 33 -13
50 -2 21 -7 31 -19 31 -10 0 -19 10 -21 25 -6 29 2 38 22 24 13 -8 13 -10 0
-19 -12 -8 -9 -10 13 -10 15 0 27 -4 27 -10 0 -5 4 -10 10 -10 5 0 8 6 6 13
-11 33 -15 77 -7 73 5 -3 11 4 14 16 5 18 11 20 42 15 l37 -6 -23 19 c-12 11
-19 20 -14 20 4 0 2 6 -4 13 -8 11 -5 16 14 25 35 16 32 36 -5 34 -3 0 -5 12
-6 28 -1 20 3 27 13 23 8 -3 12 -12 8 -22 -5 -12 -3 -13 6 -4 6 6 12 26 13 42
1 34 16 43 16 11 0 -20 1 -20 23 2 16 16 20 26 13 31 -8 6 -7 10 1 14 7 2 20
20 29 39 20 42 28 40 12 -4 -7 -17 -9 -34 -5 -38 14 -14 21 7 21 60 1 30 4 49
7 44 4 -6 11 -3 18 8 6 11 11 13 11 7 0 -21 31 -15 37 7 3 11 9 20 14 20 5 0
9 7 9 16 0 10 6 14 15 10 17 -6 20 5 4 21 -15 15 7 28 24 15 8 -7 17 -5 26 6
13 14 12 15 -7 10 -12 -4 -25 -2 -28 4 -8 13 26 43 60 52 32 8 30 28 -5 37
-16 5 -18 7 -6 8 14 1 41 12 67 29 2 2 -2 7 -10 12 -12 8 -10 10 8 10 13 0 22
6 22 15 0 8 4 15 10 15 5 0 9 3 9 7 -3 20 2 43 8 42 49 -8 87 15 41 24 -22 4
-22 4 2 6 20 1 22 3 10 11 -12 8 -11 10 7 10 16 0 21 4 17 15 -4 10 -2 13 7
10 8 -3 20 4 27 16 12 19 11 20 -7 14 -16 -5 -20 -3 -15 9 3 9 12 16 19 16 16
0 48 43 63 85 6 17 11 23 12 15 1 -8 5 -4 9 10 4 14 13 24 19 23 7 -2 12 3 12
10 0 7 21 37 48 66 62 71 122 157 122 177 0 38 77 124 103 116 5 -1 6 2 3 7
-8 12 13 28 52 36 17 3 32 10 32 15 0 4 8 6 18 3 10 -2 24 3 31 11 12 14 10
16 -8 16 -14 0 -20 -4 -15 -12 4 -7 3 -8 -4 -4 -6 4 -21 2 -32 -4 -35 -18 -22
-1 18 23 36 24 111 44 165 46 20 1 27 -4 27 -18 0 -10 -7 -24 -15 -31 -8 -7
-15 -10 -15 -7 0 3 -21 -15 -47 -39 -25 -24 -53 -44 -61 -44 -9 0 -12 -3 -9
-6 4 -4 -6 -18 -21 -30 -21 -18 -23 -24 -10 -24 9 0 20 5 23 10 4 6 11 8 16 5
5 -4 9 3 9 14 0 25 84 85 119 85 13 1 25 7 27 14 1 7 0 8 -3 2 -2 -5 -12 -10
-21 -10 -13 1 -10 6 11 23 17 15 24 26 17 33 -18 18 -3 28 140 103 58 30 110
51 127 51 9 0 13 3 10 6 -6 7 54 43 62 37 2 -2 -6 -11 -18 -22 -14 -13 -18
-22 -11 -26 10 -6 55 34 90 80 14 19 14 19 -5 4 -33 -26 -45 -31 -39 -16 3 8
16 20 30 27 13 7 24 18 25 24 0 6 4 2 9 -9 8 -20 9 -19 9 1 1 27 14 37 76 59
28 10 55 21 60 25 12 8 198 80 208 80 3 0 35 20 70 45 38 26 88 51 122 60 31
8 62 19 69 23 6 5 28 12 49 16 20 4 37 11 37 16 0 5 6 7 14 4 8 -3 17 -1 21 5
3 6 13 11 21 11 8 0 12 -4 9 -10 -3 -5 -2 -10 4 -10 5 0 11 10 13 21 5 33 103
97 165 109 62 11 250 102 343 166 42 28 79 46 103 48 20 2 42 8 49 13 20 16
68 25 68 13 0 -5 -7 -10 -15 -10 -13 0 -12 -3 2 -19 12 -15 24 -18 46 -14 29
6 29 6 13 -19 -9 -14 -17 -45 -19 -69 -1 -24 -6 -48 -12 -52 -6 -5 -4 -7 5 -4
8 2 14 12 13 22 -2 26 31 98 79 171 32 49 45 61 55 52 12 -10 17 -4 14 15 0 4
5 7 13 7 7 0 19 7 26 15 10 12 9 15 -6 16 -11 1 -5 4 11 8 36 8 43 -3 19 -30
-28 -31 -10 -32 21 -2 l28 28 -8 -25 c-5 -14 -9 -32 -10 -40 -1 -8 -5 -31 -8
-50 -18 -101 -17 -110 13 -90 13 9 13 10 0 10 -9 0 -11 3 -5 8 6 4 12 27 13
51 2 24 12 62 23 85 10 22 19 47 19 54 0 21 59 105 88 127 l26 19 -26 -34
c-51 -68 -78 -156 -84 -272 -5 -81 -3 -108 6 -108 8 0 10 -9 6 -24 -4 -15 0
-28 9 -36 9 -8 15 -8 15 -2 0 6 -6 13 -12 15 -10 4 -9 8 2 16 12 8 16 6 20
-12 5 -20 7 -20 13 -4 4 10 11 15 17 12 15 -9 12 -33 -4 -37 -12 -2 -11 -8 4
-26 19 -23 20 -23 45 -5 14 10 23 25 22 33 -4 17 15 40 33 40 7 0 9 8 5 21 -5
15 -2 22 12 25 15 4 18 12 15 34 -3 21 1 32 16 41 11 7 18 18 15 26 -7 17 19
73 34 73 7 0 13 9 13 20 0 11 4 20 8 20 27 0 34 115 8 133 -8 5 -7 10 3 16 8
5 11 16 8 25 -3 8 -2 18 4 22 6 3 8 22 4 45 -4 26 -3 39 4 39 8 0 7 7 -1 20
-10 15 -10 22 -2 28 7 4 12 27 12 52 0 25 2 146 5 270 3 124 6 237 6 253 1 15
5 27 11 27 5 0 7 -7 4 -15 -4 -9 0 -15 10 -15 16 0 20 10 16 44 -1 14 7 10 36
-18 20 -20 42 -46 48 -59 6 -12 21 -26 34 -32 12 -5 22 -15 22 -22 0 -7 11
-13 24 -13 34 0 53 -25 29 -39 -10 -6 -12 -11 -5 -11 6 0 12 -4 12 -9 0 -4 15
-24 33 -43 30 -32 35 -34 44 -19 10 13 11 12 6 -6 -3 -14 -1 -23 7 -23 7 0 9
-8 5 -19 -5 -16 0 -20 22 -23 21 -2 29 -9 31 -26 2 -15 9 -22 17 -18 7 2 16
-2 19 -10 3 -8 12 -14 21 -14 9 0 18 -12 21 -30 4 -16 13 -35 22 -42 13 -11
14 -10 9 14 -4 14 -10 34 -13 45 -5 17 -5 17 6 0 6 -9 15 -15 20 -12 5 3 11 1
15 -5 4 -6 15 -4 29 5 22 14 25 13 61 -19 32 -30 41 -33 63 -25 17 7 27 6 32
-1 4 -6 29 -12 56 -14 27 -2 55 -4 63 -5 7 0 11 -7 8 -14 -4 -10 2 -13 21 -10
23 3 24 2 7 -6 -18 -8 -18 -10 -3 -16 9 -4 21 -4 27 -1 5 4 12 2 16 -4 8 -13
42 -13 47 0 4 13 36 15 62 5 14 -6 18 -5 14 6 -3 8 1 19 8 26 17 17 24 16 24
-2 0 -8 -5 -15 -12 -15 -6 0 -8 -3 -4 -7 4 -5 24 -8 45 -9 20 0 42 -3 49 -8 6
-4 26 0 43 9 17 9 28 12 25 6 -4 -6 -1 -11 8 -11 8 0 17 5 19 10 3 6 4 5 3 -2
-2 -7 -13 -13 -25 -12 -11 0 -21 -4 -21 -11 0 -6 18 -11 43 -11 28 0 44 5 44
13 0 9 -5 9 -20 1 -13 -7 -17 -7 -13 0 9 15 115 54 156 57 19 2 29 1 23 -2
-15 -6 -17 -33 -3 -33 5 0 12 11 16 25 5 20 9 23 25 15 15 -8 21 -6 31 10 7
11 17 20 22 20 4 0 2 -8 -5 -17 -12 -15 -12 -16 6 -10 20 7 20 7 1 -8 -11 -8
-17 -17 -14 -20 3 -3 19 6 34 20 16 15 23 23 15 19 -9 -5 -12 -3 -7 5 4 6 11
9 16 6 4 -3 13 2 20 10 7 8 19 15 26 15 8 0 14 7 14 15 0 15 25 21 33 8 2 -5
3 -3 2 2 -2 6 8 16 22 22 21 10 23 10 18 -8 -5 -15 -3 -18 12 -12 17 7 17 6 0
-20 -9 -15 -14 -27 -9 -27 16 0 42 36 42 58 0 11 5 24 12 28 7 5 8 3 3 -6 -5
-8 -4 -11 3 -7 5 4 8 17 6 30 -2 12 -1 16 2 9 5 -10 14 -5 35 18 33 36 35 34
14 -17 -8 -19 -14 -47 -14 -62 1 -17 3 -20 6 -8 3 10 10 14 16 11 8 -5 8 -2 0
7 -7 7 -13 17 -13 21 0 16 16 7 31 -18 l16 -26 7 26 c3 14 11 26 17 26 8 0 8
4 0 14 -9 10 -9 26 1 62 10 41 34 91 28 59 -5 -23 1 -25 25 -9 32 21 44 11 20
-16 -19 -21 -19 -21 10 -6 16 8 33 12 38 9 6 -3 7 -1 3 6 -5 7 4 23 20 38 18
17 24 28 16 31 -6 2 -12 8 -12 13 0 14 38 48 45 41 4 -4 4 4 0 17 -5 16 -4 21
4 17 14 -9 15 -46 1 -46 -5 0 -10 -4 -10 -10 0 -5 7 -10 15 -10 10 0 15 11 15
35 0 19 4 35 8 35 4 0 13 14 19 30 10 27 15 30 56 30 39 0 46 3 51 25 8 30 54
78 67 70 5 -4 7 -11 4 -16 -4 -5 0 -9 8 -9 10 0 13 7 10 20 -3 11 0 20 6 20 6
0 16 21 22 46 7 27 15 41 19 34 11 -17 22 4 13 26 -5 13 -3 15 7 9 10 -6 12
-4 7 8 -3 9 -3 16 1 16 18 -3 33 2 28 9 -2 4 3 16 11 27 11 14 17 16 20 7 7
-19 23 -4 17 16 -5 14 -4 15 5 2 12 -17 15 -15 29 25 6 17 11 22 11 13 1 -10
5 -18 10 -18 5 0 8 8 7 18 0 10 5 16 14 13 8 -2 21 -4 27 -4 8 0 10 -9 7 -24
-4 -13 -2 -23 4 -23 12 0 9 -90 -3 -110 -5 -8 -4 -11 2 -7 13 8 24 -70 19
-130 -2 -24 1 -43 7 -43 5 0 6 -15 2 -36 -4 -24 -3 -34 4 -29 6 3 11 -1 11
-10 0 -9 -3 -14 -7 -12 -5 3 -9 -12 -11 -33 -1 -21 2 -41 7 -45 6 -3 7 -15 2
-28 -4 -12 -5 -53 -1 -92 4 -38 6 -75 3 -82 -3 -8 2 -13 13 -14 11 0 14 -3 6
-6 -16 -6 -16 -50 1 -57 9 -5 9 -7 0 -12 -9 -4 -10 -11 -2 -25 5 -11 7 -24 4
-29 -3 -5 -1 -11 5 -15 9 -6 11 -18 12 -127 1 -40 5 -59 16 -63 10 -4 11 -9 4
-18 -8 -10 -10 -52 -2 -52 1 0 4 -18 6 -40 8 -61 20 -64 25 -5 2 19 8 38 14
42 19 14 34 8 30 -11 -3 -14 1 -18 11 -14 8 3 24 -5 37 -20 12 -13 29 -27 37
-30 9 -3 10 -6 3 -6 -7 -1 -13 -6 -13 -11 0 -6 5 -9 12 -8 6 2 14 -8 18 -22 3
-14 18 -31 34 -38 18 -9 26 -20 23 -31 -3 -12 2 -17 16 -18 11 -1 23 -6 26
-11 3 -5 16 -12 29 -16 12 -4 22 -12 22 -17 0 -5 14 -9 30 -9 20 0 30 -5 30
-15 0 -8 7 -15 15 -15 7 0 18 -6 22 -13 4 -8 20 -21 34 -31 24 -15 27 -15 39
-1 17 21 -1 60 -64 138 -26 31 -43 57 -39 57 4 0 2 4 -6 9 -8 5 -22 8 -32 6
-12 -2 -31 11 -54 37 -19 23 -33 43 -31 46 8 8 46 -10 41 -19 -4 -5 4 -9 16
-9 14 0 42 -21 75 -54 28 -30 55 -52 58 -49 3 4 6 -1 6 -10 0 -9 8 -22 17 -29
10 -7 31 -32 47 -55 16 -24 33 -43 38 -43 10 0 3 16 -19 41 -12 14 -12 17 3
23 10 4 21 1 26 -6 6 -11 8 -11 8 0 0 9 5 10 19 3 10 -6 21 -7 25 -4 3 3 6 -1
6 -10 0 -9 18 -29 40 -43 22 -15 40 -33 40 -41 0 -7 7 -16 15 -19 8 -4 15 -12
15 -20 0 -7 7 -17 17 -22 10 -6 14 -16 10 -26 -4 -9 -3 -15 2 -11 5 3 12 -12
16 -32 8 -47 34 -99 35 -69 0 19 0 19 22 0 19 -17 21 -17 15 -2 -22 56 -21 55
-1 35 10 -10 19 -25 19 -34 0 -9 5 -18 11 -20 7 -2 9 8 6 27 -3 18 0 30 7 30
10 0 15 -16 14 -47 -1 -19 17 -4 18 15 1 14 2 13 8 -3 15 -45 34 -73 61 -89
18 -10 31 -13 35 -6 3 5 -1 10 -9 10 -9 0 -13 6 -10 14 3 9 -2 16 -13 19 -10
2 -3 2 15 0 18 -2 32 1 32 7 0 5 6 10 13 10 8 0 13 -10 13 -22 -1 -15 6 -24
19 -26 17 -4 18 -2 5 13 -12 14 -12 18 0 25 20 12 6 23 -30 24 -16 1 -30 4
-30 9 0 4 -7 7 -16 7 -8 0 -12 -4 -9 -10 3 -5 -2 -10 -13 -10 -15 0 -19 6 -17
25 3 26 -10 35 -18 12 -2 -6 -2 -2 0 11 2 12 -1 22 -6 22 -6 0 -22 12 -38 26
-15 14 -40 28 -56 31 -18 4 -26 10 -23 19 3 8 2 13 -2 12 -21 -4 -76 34 -65
46 11 11 -40 57 -56 51 -9 -3 -12 -3 -8 1 4 4 -11 18 -33 31 -40 24 -48 37
-30 48 6 3 10 0 10 -9 0 -8 16 -20 35 -26 37 -12 73 -39 145 -109 42 -42 121
-91 146 -91 6 0 17 -7 24 -15 7 -8 16 -12 21 -9 5 3 9 0 9 -5 0 -6 9 -11 19
-11 10 0 40 -18 67 -40 26 -21 51 -37 54 -35 4 2 16 -5 28 -15 12 -11 27 -20
35 -20 7 0 22 -8 33 -18 11 -11 33 -26 49 -34 81 -43 141 -71 148 -70 4 1 7
-2 7 -6 0 -13 81 -63 91 -56 5 3 9 -1 9 -8 0 -12 17 -23 114 -81 62 -36 71
-41 77 -42 3 0 54 -29 114 -65 59 -36 121 -72 137 -82 42 -23 104 -65 173
-118 33 -25 103 -75 155 -112 118 -83 168 -120 206 -153 16 -14 32 -25 36 -25
4 0 26 -18 50 -40 24 -22 46 -40 50 -40 4 0 13 -7 22 -15 8 -9 41 -30 73 -49
32 -18 96 -56 143 -86 47 -29 86 -52 88 -51 1 1 10 -3 20 -9 14 -9 12 -10 -8
-3 -14 4 -35 7 -47 8 -11 0 -19 3 -17 7 2 3 -21 19 -51 34 -30 16 -55 32 -55
36 0 4 -9 8 -20 8 -11 0 -20 5 -20 10 0 6 -6 10 -13 10 -7 0 -23 9 -35 20 -12
11 -24 20 -28 20 -3 0 -27 18 -53 39 -26 22 -59 43 -74 46 -15 4 -30 12 -34
18 -3 6 -1 7 5 3 7 -4 12 -2 12 3 0 6 -7 11 -15 11 -8 0 -15 7 -15 15 0 8 -3
14 -7 13 -17 -4 -53 14 -47 24 4 6 1 9 -6 6 -7 -2 -27 9 -44 24 -17 15 -41 28
-53 28 -16 0 -23 6 -23 20 0 13 -7 20 -20 20 -11 0 -20 -4 -20 -10 0 -5 -7 -7
-16 -3 -15 5 -15 3 1 -20 21 -33 26 -34 22 -6 -1 12 5 24 13 27 8 3 12 1 8 -2
-9 -11 12 -66 25 -66 6 0 1 -7 -11 -16 -17 -11 -21 -21 -16 -37 9 -29 8 -29
38 -17 21 8 28 7 33 -6 3 -8 12 -13 19 -10 7 3 16 1 19 -4 4 -6 17 -10 31 -10
15 0 24 -6 24 -15 0 -9 -9 -15 -22 -15 -23 0 -57 -16 -48 -22 21 -15 85 -38
106 -38 23 0 24 -1 10 -16 -20 -19 -21 -44 -1 -44 9 0 12 6 8 16 -5 14 -1 15
28 9 19 -4 39 -14 46 -22 7 -9 19 -13 27 -10 11 4 13 1 9 -10 -5 -12 -2 -15
10 -10 11 4 17 1 17 -8 0 -8 3 -15 8 -15 4 0 16 -12 26 -27 11 -14 14 -23 8
-19 -7 4 -12 2 -12 -3 0 -6 15 -12 33 -12 17 -1 24 -3 15 -6 -10 -2 -18 -9
-18 -14 0 -8 6 -10 43 -13 6 -1 11 5 10 12 -2 6 1 12 6 12 14 0 21 -41 10 -61
-13 -25 -11 -37 4 -18 12 16 77 32 77 18 0 -4 3 -16 6 -26 5 -17 5 -17 -9 -1
-12 16 -16 16 -33 2 -18 -14 -18 -15 4 -9 16 5 22 2 22 -10 0 -9 5 -13 10 -10
6 3 13 -1 16 -9 3 -9 10 -13 15 -10 5 3 9 0 9 -5 0 -6 8 -11 18 -11 21 0 46
36 32 45 -6 3 -10 -2 -10 -11 0 -14 -3 -15 -12 -6 -9 9 -9 15 3 27 16 16 53
10 43 -7 -3 -5 -3 -20 0 -34 5 -17 13 -24 31 -24 15 0 31 -11 46 -32 28 -41
37 -47 58 -41 16 4 26 53 11 53 -5 0 -12 9 -15 20 -3 11 -12 20 -19 20 -7 0
-25 9 -38 20 -14 10 -29 16 -33 12 -5 -4 -5 1 -2 11 4 10 7 22 7 25 0 4 4 1 8
-6 5 -7 22 -16 39 -21 25 -7 33 -6 37 6 3 8 3 20 -1 26 -4 7 -1 7 9 -1 9 -7
18 -9 20 -5 3 4 4 3 2 -3 -1 -6 14 -28 34 -50 68 -74 205 -273 234 -339 7 -16
20 -37 29 -45 24 -22 41 -60 35 -76 -8 -21 5 -49 15 -33 10 16 39 -5 39 -29 0
-13 -3 -12 -16 4 -15 18 -15 18 -10 -6 3 -14 6 -29 6 -33 0 -5 4 -6 9 -2 5 3
17 -5 26 -17 8 -13 18 -22 22 -20 9 4 22 -30 16 -40 -2 -5 0 -8 6 -8 5 0 12
-14 16 -30 4 -17 12 -30 18 -31 7 0 3 -4 -8 -8 -18 -7 -15 -13 33 -60 28 -29
52 -57 52 -62 0 -6 8 -27 19 -49 14 -29 16 -42 7 -50 -8 -9 -7 -11 4 -10 30 4
40 0 40 -20 0 -11 5 -20 11 -20 6 0 9 -6 6 -14 -3 -8 3 -22 14 -32 10 -9 19
-28 19 -41 0 -13 4 -21 10 -18 6 3 7 -1 4 -9 -4 -9 -1 -16 6 -16 8 0 10 -9 6
-27 -4 -19 -4 -23 3 -14 7 10 11 6 16 -17 4 -18 11 -29 19 -26 6 2 13 -3 14
-13 1 -10 3 -30 5 -45 2 -16 7 -31 12 -35 4 -5 5 -2 1 5 -4 6 -2 12 3 12 6 0
16 -21 22 -46 8 -31 18 -48 31 -52 10 -2 18 -9 18 -14 0 -6 -7 -7 -16 -4 -10
4 -14 1 -11 -6 2 -7 12 -12 22 -11 15 1 16 -5 11 -38 -4 -23 -2 -39 4 -39 5 0
7 -6 4 -14 -3 -8 4 -16 17 -19 14 -4 20 -11 16 -21 -4 -9 -2 -16 3 -16 17 0
11 -18 -7 -23 -11 -3 -7 -5 10 -6 17 -1 27 -7 27 -16 0 -8 -5 -15 -11 -15 -5
0 -7 5 -4 10 3 6 -1 10 -9 10 -26 0 -18 -16 17 -31 26 -11 31 -19 29 -41 -2
-19 3 -30 18 -38 16 -8 21 -20 19 -43 -3 -52 0 -79 10 -72 10 5 27 -94 22
-130 -1 -15 0 -17 7 -7 7 11 11 8 15 -9 4 -14 1 -27 -6 -31 -9 -6 -9 -8 2 -8
7 0 11 -6 7 -15 -3 -8 0 -14 5 -12 6 1 12 -15 14 -35 2 -21 0 -37 -4 -36 -20
2 -23 -4 -6 -15 20 -15 30 -87 12 -87 -6 0 -7 -3 -4 -6 4 -4 13 -1 22 6 13 11
15 8 15 -17 0 -17 5 -45 11 -63 9 -26 9 -34 -2 -41 -9 -6 -10 -9 -2 -9 8 0 11
-19 9 -62 -2 -35 2 -69 8 -77 7 -10 6 -16 -4 -25 -9 -6 -14 -23 -12 -38 l3
-28 390 0 389 0 0 8000 0 8000 -6000 0 -6000 0 0 -7348z m10919 2496 c54 -29
93 -70 95 -102 0 -14 4 -26 7 -26 10 0 18 -92 9 -114 -20 -53 -77 -91 -150
-102 -92 -13 -124 -10 -143 13 -10 12 -26 25 -36 28 -22 7 -61 83 -60 117 0
13 0 42 -2 66 -1 37 3 47 29 68 17 14 34 25 38 24 4 -1 10 4 14 11 7 10 48 20
152 38 3 0 24 -9 47 -21z m-5475 -1033 l-5 -30 19 24 c19 23 20 23 30 5 10
-17 11 -17 12 -1 0 19 20 24 20 5 0 -10 2 -10 9 0 7 11 9 11 14 -2 5 -12 13
-13 36 -6 32 9 47 0 38 -25 -7 -17 17 -27 31 -13 19 19 62 19 63 0 0 -14 2
-13 9 3 7 17 9 16 9 -9 1 -28 2 -29 16 -10 8 11 14 14 15 6 0 -10 5 -10 21 -1
18 9 24 8 31 -6 8 -13 18 -15 44 -10 19 3 34 2 34 -3 0 -4 20 -7 45 -7 37 2
45 -1 45 -15 0 -10 7 -21 16 -24 10 -4 13 -2 8 6 -5 7 0 9 14 6 12 -4 22 -2
22 3 0 5 5 9 11 9 6 0 8 -7 5 -16 -3 -8 -2 -12 3 -9 5 3 12 1 15 -3 3 -5 21
-8 41 -6 24 2 35 -2 35 -12 0 -7 6 -11 14 -8 9 3 17 -3 21 -15 4 -12 12 -18
21 -14 7 3 14 0 14 -7 0 -6 5 -8 13 -4 7 5 7 1 -2 -10 -13 -16 -12 -17 11 -11
20 5 30 1 46 -19 11 -14 27 -26 36 -26 9 0 16 -5 16 -11 0 -5 -4 -8 -8 -5 -5
3 -4 -10 2 -29 l10 -34 18 37 c9 20 17 31 18 25 0 -7 6 -13 14 -13 14 0 29
-28 25 -46 -4 -17 20 -62 39 -76 11 -7 31 -40 45 -72 15 -36 27 -53 30 -45 4
8 3 1 0 -15 -4 -20 -3 -27 6 -22 7 5 11 0 11 -13 0 -23 -15 -28 -23 -8 -4 7
-6 6 -6 -4 -1 -9 5 -19 12 -22 19 -7 70 -164 62 -194 -3 -14 -2 -30 3 -36 5
-7 19 -49 32 -94 13 -46 27 -83 32 -83 4 0 8 -9 8 -20 0 -19 33 -121 50 -151
5 -9 6 -27 3 -39 -5 -17 -3 -21 6 -15 10 6 11 2 6 -15 -5 -15 -4 -20 4 -16 7
4 9 1 5 -8 -3 -8 6 -36 20 -62 14 -26 23 -51 20 -56 -3 -4 4 -18 15 -30 21
-22 27 -38 14 -38 -5 0 -17 14 -28 31 -11 17 -29 35 -40 40 -22 10 -57 31 -65
39 -3 3 -22 19 -42 37 -32 28 -41 31 -68 23 -19 -5 -28 -5 -25 1 4 5 -5 9 -18
9 -14 0 -38 7 -53 15 -36 18 -58 20 -47 3 4 -7 -5 -5 -20 5 -20 13 -32 15 -45
8 -10 -5 -36 -8 -56 -6 -41 3 -38 -12 4 -20 41 -8 34 -15 -13 -13 -25 1 -43 6
-41 10 3 4 -2 8 -11 8 -9 0 -13 -4 -10 -10 9 -15 -2 -12 -19 6 -13 12 -46 16
-160 19 l-145 4 -52 -34 c-50 -34 -82 -48 -45 -20 11 8 16 18 11 22 -4 5 -10
2 -12 -5 -3 -7 -18 -19 -34 -28 -16 -8 -27 -19 -24 -24 4 -6 2 -10 -3 -10 -12
0 -22 -32 -27 -85 -10 -88 -9 -86 -24 -70 -12 12 -12 16 0 32 13 16 12 17 -3
4 -16 -12 -18 -10 -18 22 0 20 5 39 10 42 6 3 10 11 10 18 0 6 -11 -5 -25 -25
-14 -20 -25 -48 -25 -62 0 -14 -5 -37 -11 -53 -8 -22 -7 -30 7 -40 10 -7 19
-11 21 -9 9 8 9 62 1 81 -7 15 -4 13 11 -5 22 -27 27 -65 11 -75 -5 -3 -10
-15 -10 -26 0 -11 5 -17 10 -14 6 4 8 10 5 15 -3 4 2 11 11 14 9 4 14 13 10
21 -3 8 -2 15 3 15 4 0 8 6 9 13 2 28 14 72 23 83 5 6 5 15 1 19 -4 5 -1 5 6
1 6 -4 12 -2 12 3 0 6 -7 11 -15 11 -8 0 -15 5 -15 10 0 6 0 13 0 18 0 4 5 8
10 8 6 1 15 2 20 3 6 0 10 6 10 12 0 8 -5 8 -15 -1 -9 -8 -15 -9 -15 -2 0 6 5
14 10 17 6 4 7 12 4 18 -5 9 -4 9 6 0 10 -9 18 -8 37 4 24 16 40 13 28 -6 -3
-6 -11 -9 -16 -5 -5 3 -14 -8 -20 -25 -6 -17 -15 -28 -21 -25 -6 4 -8 -1 -4
-13 4 -11 0 -35 -8 -54 -7 -19 -11 -39 -9 -46 2 -6 -5 -30 -16 -52 -12 -22
-21 -42 -21 -44 0 -7 83 23 97 35 6 5 11 15 9 21 -1 7 2 2 8 -10 10 -23 46
-32 46 -12 0 5 4 7 10 4 5 -3 19 -1 31 6 16 8 23 8 29 -1 9 -15 21 -15 30 0 4
7 19 14 33 15 33 4 49 14 41 26 -3 5 -10 6 -16 3 -7 -4 -8 -2 -4 4 5 8 13 9
25 2 12 -6 22 -5 31 3 10 9 11 9 6 0 -11 -20 2 -16 37 11 18 13 49 27 69 31
29 5 35 11 30 23 -4 14 -3 15 9 6 16 -12 62 -17 55 -6 -2 4 19 8 48 9 35 2 46
-1 36 -7 -12 -8 -12 -10 5 -11 11 -1 25 0 30 1 21 5 100 -2 114 -10 14 -8 13
-10 -4 -10 l-20 -1 20 -10 c16 -7 14 -8 -10 -3 -39 7 -107 14 -76 7 19 -4 21
-7 10 -14 -11 -8 -10 -9 6 -8 31 4 124 -12 130 -21 3 -5 -3 -14 -12 -20 -15
-9 -15 -10 6 -4 15 4 21 2 17 -4 -3 -5 1 -13 10 -16 12 -4 15 -2 10 9 -6 17
29 21 54 5 12 -7 8 -10 -15 -10 -28 -1 -29 -2 -7 -10 12 -5 22 -15 21 -22 0
-10 -2 -10 -6 1 -4 11 -7 11 -13 0 -11 -16 34 -41 58 -32 9 3 14 2 9 -2 -4 -5
5 -14 20 -21 l28 -13 -27 4 c-15 2 -30 -1 -33 -6 -6 -8 23 -14 53 -10 6 1 12
-3 12 -9 0 -5 8 -10 18 -10 14 0 15 -2 2 -10 -12 -8 -9 -10 13 -10 16 0 26 -4
22 -9 -3 -5 4 -12 15 -16 11 -3 19 -9 18 -13 -2 -11 15 -46 26 -55 6 -5 1 -6
-11 -3 -59 15 -65 15 -26 -1 24 -9 42 -22 41 -28 -2 -10 12 -62 33 -133 6 -18
10 -52 9 -75 -1 -23 -1 -48 -1 -54 1 -19 21 -16 21 3 0 9 9 18 20 21 10 3 22
14 25 24 10 29 33 24 27 -6 -3 -16 -11 -25 -24 -25 -10 0 -16 -4 -13 -10 3 -5
16 -10 28 -10 18 0 19 -2 7 -11 -12 -8 -9 -10 13 -6 15 2 30 0 33 -4 3 -5 -2
-9 -10 -9 -19 0 -16 -42 2 -48 8 -2 5 -10 -8 -20 -15 -13 -17 -20 -9 -32 9
-13 10 -12 5 3 -3 11 -2 16 4 12 13 -8 13 -35 -1 -35 -5 0 -7 -5 -3 -12 6 -9
9 -9 12 0 2 7 13 12 25 11 12 0 16 -3 9 -6 -10 -4 -8 -8 5 -18 10 -7 14 -17
10 -21 -4 -5 -12 -2 -17 6 -7 11 -10 8 -10 -12 0 -17 -6 -28 -13 -28 -14 0
-17 -46 -3 -68 4 -7 5 -16 2 -21 -4 -5 3 -7 14 -4 11 3 20 0 20 -6 0 -6 7 -8
17 -4 11 4 14 3 9 -6 -5 -8 -19 -10 -38 -6 l-30 7 17 -26 c10 -14 14 -35 11
-48 -3 -13 -3 -17 0 -10 13 29 21 8 18 -50 -1 -35 -3 -78 -3 -95 -1 -21 -6
-33 -14 -33 -11 0 -13 -17 -11 -72 3 -62 1 -70 -10 -55 -7 9 -16 17 -20 17 -8
0 -3 -24 8 -31 4 -4 -2 -17 -14 -29 -12 -12 -19 -28 -16 -36 3 -8 9 -21 12
-29 3 -8 2 -15 -3 -15 -5 0 -9 -16 -10 -35 -1 -20 4 -35 10 -35 7 0 6 -4 -2
-9 -8 -5 -11 -16 -8 -25 4 -9 3 -16 -2 -16 -15 0 -20 -40 -9 -72 8 -23 8 -36
-1 -50 -15 -24 -16 -157 -2 -171 7 -7 5 -15 -7 -24 -9 -8 -12 -12 -6 -9 7 3
14 -4 18 -17 3 -12 1 -23 -4 -25 -6 -2 -10 -13 -10 -25 0 -12 -5 -29 -11 -37
-8 -12 -9 -10 -4 7 3 12 -1 34 -9 50 -10 19 -15 22 -16 11 0 -9 5 -20 10 -23
7 -4 6 -13 -1 -27 -14 -25 -18 -88 -6 -81 12 7 -2 -78 -15 -94 -6 -7 -8 -23
-4 -36 3 -13 1 -36 -3 -52 l-9 -30 -2 35 c-2 32 -3 31 -12 -15 -5 -32 -16 -55
-28 -63 -11 -7 -20 -8 -20 -3 0 6 4 12 8 15 5 3 8 21 7 41 0 19 3 35 8 35 4 0
5 5 2 10 -12 20 -25 -2 -26 -43 0 -23 -3 -36 -6 -29 -2 6 -9 10 -14 7 -5 -4
-2 -22 6 -42 22 -51 17 -65 -6 -18 -10 22 -17 33 -15 25 2 -8 -3 -27 -11 -42
-14 -28 -27 -39 -17 -15 2 7 -2 21 -9 31 -13 17 -14 16 -9 -13 2 -17 -1 -38
-8 -46 -16 -19 -1 -19 24 0 29 22 36 19 36 -14 0 -37 -9 -61 -23 -61 -7 0 -7
4 1 12 7 7 12 21 12 33 0 15 -4 13 -16 -12 -15 -31 -41 -37 -30 -7 3 7 1 16
-4 19 -5 3 -12 -7 -16 -22 -10 -42 -17 -49 -26 -27 -6 16 -7 15 -5 -6 1 -14 8
-24 14 -23 6 1 9 -6 6 -17 -7 -25 -23 -36 -23 -16 0 8 -5 16 -11 18 -6 2 -11
16 -11 31 0 27 -1 28 -15 7 -8 -12 -12 -24 -9 -27 3 -4 6 0 7 8 0 8 4 6 8 -6
5 -13 1 -31 -12 -53 -14 -23 -17 -36 -9 -41 7 -4 8 -12 2 -21 -9 -13 -10 -13
-10 0 0 13 -1 13 -10 0 -12 -19 -13 -43 -1 -36 10 7 9 -19 -1 -30 -9 -8 -29
32 -20 41 4 5 2 5 -4 2 -6 -4 -9 -17 -7 -30 3 -13 -2 -43 -9 -66 -13 -39 -16
-41 -29 -25 -11 14 -11 16 0 10 10 -7 12 -3 6 14 -5 17 -4 21 5 15 10 -6 12 0
7 24 -4 18 -3 30 2 26 5 -3 7 4 4 16 -7 26 -20 13 -25 -26 l-3 -30 -6 33 c-4
21 -1 39 7 46 12 12 8 62 -5 71 -4 2 -8 -10 -9 -28 -4 -77 -7 -106 -14 -113
-5 -4 -8 -12 -8 -18 0 -6 5 -4 11 4 8 11 9 5 5 -25 -3 -22 -12 -45 -21 -51 -8
-6 -15 -16 -15 -21 0 -15 44 -10 52 7 5 9 7 4 5 -14 -1 -16 -8 -31 -15 -34 -7
-2 -10 2 -6 12 3 9 1 16 -5 16 -10 0 -17 -52 -12 -89 2 -7 -2 -10 -8 -7 -5 4
-11 -4 -13 -16 -3 -13 -5 0 -6 29 0 28 -7 61 -14 72 l-13 21 -12 -23 c-8 -14
-12 -17 -13 -7 0 8 9 29 20 45 20 31 28 111 10 100 -6 -3 -10 -20 -10 -36 0
-17 -4 -28 -10 -24 -5 3 -7 0 -4 -8 3 -8 1 -18 -5 -22 -6 -3 -11 -18 -11 -33
0 -17 -8 -32 -22 -41 -21 -13 -22 -13 -10 2 8 9 10 22 6 28 -5 8 -3 10 7 5 8
-4 3 1 -11 12 -26 22 -40 21 -23 0 12 -14 10 -38 -5 -63 -7 -14 -10 -12 -15
15 -4 18 -19 46 -33 63 l-26 31 4 -30 c1 -16 7 -28 13 -26 9 3 28 -58 21 -65
-2 -2 -15 8 -31 21 -20 17 -24 25 -14 29 8 3 9 6 3 6 -6 1 -17 -5 -23 -13 -9
-10 -8 -16 4 -26 16 -14 21 -65 5 -55 -5 3 -10 2 -10 -4 0 -5 5 -13 10 -16 6
-3 10 -14 10 -23 -1 -13 -7 -10 -24 12 -19 23 -22 34 -16 57 8 27 4 33 -17 27
-5 -1 -7 -8 -5 -15 4 -17 -10 -17 -27 0 -8 6 -6 0 4 -15 17 -27 13 -54 -7 -42
-7 4 -7 0 0 -12 14 -28 4 -48 -16 -32 -13 11 -14 11 -7 -1 6 -10 4 -12 -5 -6
-10 6 -12 4 -7 -8 3 -10 2 -17 -3 -17 -5 0 -7 26 -5 58 3 31 2 49 -1 39 -5
-15 -8 -16 -22 -5 -15 11 -15 11 -6 -2 6 -8 11 -26 12 -40 1 -21 -1 -23 -9 -7
-6 9 -17 17 -24 17 -8 0 -16 5 -16 10 -3 20 -5 25 -17 45 -11 18 -12 17 -6
-10 4 -23 3 -26 -5 -15 -7 10 -11 11 -11 3 0 -7 6 -18 13 -25 8 -7 12 -22 10
-33 -2 -11 -1 -15 3 -8 6 13 34 6 34 -9 0 -5 -4 -7 -9 -4 -5 3 -14 0 -20 -8
-9 -11 -9 -15 1 -19 10 -4 10 -7 -1 -15 -11 -8 -10 -12 5 -21 15 -8 16 -12 6
-19 -11 -7 -7 -11 12 -16 19 -5 26 -13 26 -32 0 -14 -4 -23 -10 -19 -5 3 -10
15 -10 26 0 10 -4 19 -10 19 -5 0 -10 -16 -10 -36 0 -21 -4 -33 -10 -29 -5 3
-10 14 -10 23 0 9 -10 28 -21 42 -17 21 -19 22 -10 3 14 -28 14 -30 -4 -30 -8
0 -15 4 -15 8 0 5 -6 6 -12 4 -8 -3 -14 4 -14 20 -2 22 0 24 10 10 9 -13 11
-10 13 17 1 20 -1 26 -5 16 -9 -23 -25 -11 -41 30 -14 34 -36 56 -24 25 3 -10
9 -22 13 -28 4 -5 6 -18 5 -27 -2 -10 1 -18 6 -18 5 0 9 -10 9 -22 -1 -21 -2
-22 -14 -6 -7 10 -16 15 -19 11 -4 -3 2 -12 13 -20 11 -8 21 -24 21 -36 1 -17
2 -18 6 -4 8 31 33 20 32 -15 0 -27 -2 -30 -9 -13 -8 19 -8 19 -15 1 -8 -17
-9 -17 -26 5 l-17 23 1 -26 c1 -14 5 -24 10 -21 4 2 7 -6 7 -18 0 -18 -2 -20
-16 -8 -14 11 -15 8 -12 -32 2 -24 7 -49 10 -55 4 -5 -2 -11 -13 -11 -16 -2
-18 3 -13 24 5 18 3 24 -5 19 -6 -4 -11 0 -11 10 0 10 -3 14 -7 11 -3 -4 -6
-25 -5 -47 1 -22 -3 -40 -8 -40 -11 0 -13 14 -10 75 2 52 9 77 21 70 14 -9 11
5 -6 21 -13 14 -15 13 -15 -4 0 -10 -3 -22 -7 -25 -3 -4 -7 -36 -7 -71 -1 -36
-4 -68 -8 -71 -4 -4 -4 -14 -1 -23 4 -10 2 -13 -5 -8 -7 4 -12 16 -12 27 0 13
-4 18 -12 13 -8 -5 -9 -2 -3 12 4 10 8 30 8 43 -1 18 1 20 8 10 9 -14 13 19 9
70 -1 14 2 21 9 17 14 -9 14 -4 1 29 -6 15 -15 23 -21 20 -6 -4 -8 -13 -5 -21
3 -7 1 -16 -5 -19 -5 -4 -6 -11 -3 -17 4 -7 2 -8 -4 -4 -7 4 -12 2 -12 -3 0
-6 -7 -11 -16 -11 -8 0 -13 4 -9 9 3 5 2 12 -3 15 -5 3 -7 20 -5 38 3 25 2 29
-6 18 -9 -12 -11 -9 -11 16 0 20 -5 31 -15 31 -16 0 -28 -24 -20 -38 3 -5 1
-18 -5 -29 -7 -13 -7 -20 -1 -20 6 0 9 -22 8 -49 -1 -27 -5 -44 -9 -38 -3 6
-8 2 -11 -9 -2 -10 -3 -8 -1 6 1 14 -1 32 -7 40 -7 12 -9 10 -9 -7 0 -27 -15
-30 -29 -5 -15 24 -14 5 1 -21 7 -12 11 -35 10 -52 -1 -19 1 -24 6 -15 4 8 14
16 22 18 12 3 12 1 3 -9 -7 -6 -10 -26 -8 -43 4 -28 4 -29 -4 -6 -9 24 -9 24
-10 -8 -1 -18 -5 -31 -10 -28 -11 7 -33 -52 -25 -65 3 -5 11 -6 17 -2 7 4 5
-1 -2 -11 -14 -17 -15 -17 -23 4 -4 12 -12 19 -17 15 -5 -3 -13 -1 -16 5 -4 6
-3 10 2 9 32 -6 34 8 14 104 -7 31 -17 55 -22 52 -5 -4 -9 -1 -9 6 0 7 -3 10
-6 6 -3 -3 1 -20 10 -38 17 -34 13 -73 -7 -66 -7 3 -11 9 -10 15 2 6 -4 9 -12
6 -10 -4 -15 0 -15 14 0 12 -5 24 -11 28 -8 4 -9 0 -4 -15 5 -16 3 -19 -8 -15
-9 3 -13 15 -10 32 2 17 -2 13 -10 -13 -9 -26 -10 -44 -4 -52 12 -17 -3 -16
-25 1 -10 7 -18 25 -18 40 0 14 -4 26 -9 26 -4 0 -7 -12 -5 -27 2 -16 1 -20
-2 -10 -9 27 -22 20 -17 -10 4 -25 3 -26 -7 -10 -7 11 -9 32 -6 50 3 17 3 27
-1 23 -4 -4 -15 8 -25 26 l-17 33 -1 -30 -1 -30 -15 25 c-10 17 -13 19 -9 5
21 -60 24 -83 20 -118 -5 -40 -24 -85 -25 -58 0 8 -6 11 -15 7 -13 -5 -32 21
-39 54 -1 3 -7 14 -14 25 -12 17 -12 14 -7 -25 3 -25 10 -46 15 -48 6 -2 10
-10 10 -18 0 -8 5 -13 11 -11 7 1 15 -10 19 -25 6 -21 4 -27 -12 -31 -16 -5
-17 -3 -7 9 10 12 10 15 -1 12 -7 -2 -13 7 -15 20 -1 13 -10 31 -20 40 -17 16
-17 15 -11 -18 5 -29 4 -32 -6 -16 -10 18 -11 18 -24 -5 -13 -22 -14 -20 -11
28 1 29 5 53 10 53 4 0 7 7 7 16 0 8 -5 12 -10 9 -7 -4 -9 2 -4 19 4 18 2 26
-6 26 -7 0 -19 8 -27 18 -12 15 -13 13 -7 -18 3 -19 10 -36 15 -38 12 -5 11
-89 -1 -97 -9 -5 -27 69 -22 88 4 14 -21 2 -26 -13 -3 -7 0 -10 7 -6 13 8 13
-23 0 -69 l-8 -30 3 32 c2 26 0 30 -11 22 -10 -9 -13 -6 -14 12 -1 13 -1 28 0
33 1 5 -1 16 -5 25 -5 12 -9 7 -13 -18 -4 -19 -16 -40 -29 -49 -22 -14 -22
-14 -13 9 5 13 14 23 19 22 7 -2 8 8 3 25 -4 15 -7 33 -5 40 1 7 0 8 -3 2 -2
-5 -9 -8 -14 -4 -5 3 -5 -6 1 -21 9 -24 8 -25 -18 -21 -24 5 -25 4 -9 -8 19
-15 14 -41 -9 -50 -9 -4 -14 2 -15 17 0 15 -2 17 -6 7 -4 -10 -10 -4 -19 20
l-12 35 -2 -45 c-2 -55 -6 -80 -16 -88 -3 -4 -4 11 0 33 5 35 4 37 -6 15 -6
-14 -10 -29 -9 -35 2 -7 -1 -7 -7 0 -5 6 -6 35 -3 68 5 41 3 61 -5 68 -9 7
-14 5 -19 -10 -3 -10 -12 -22 -21 -25 -11 -4 -12 -2 -4 14 13 24 14 52 1 31
-5 -7 -14 -10 -21 -6 -9 5 -10 1 -5 -16 5 -18 4 -20 -4 -9 -6 8 -8 30 -6 48 3
27 2 30 -9 19 -8 -7 -16 -22 -18 -33 -2 -10 -10 -18 -16 -17 -7 2 -13 -5 -13
-15 -1 -9 -5 -1 -8 18 -7 35 -3 66 6 56 3 -3 12 2 20 10 8 8 18 12 22 10 4 -3
16 9 26 26 17 29 19 30 31 13 8 -11 14 -28 14 -39 0 -17 2 -18 10 -6 5 8 5 19
1 25 -21 26 -20 63 1 90 19 25 20 26 1 15 -10 -7 -25 -25 -32 -41 -8 -19 -17
-26 -29 -23 -15 5 -15 4 -2 -5 10 -7 11 -11 3 -11 -7 0 -17 10 -24 21 -6 12
-7 19 -1 15 5 -3 13 1 16 9 4 12 0 14 -19 9 -27 -7 -32 4 -12 25 10 11 10 13
0 7 -7 -4 -13 -3 -13 3 0 14 41 51 51 45 4 -2 10 0 14 6 3 5 0 10 -9 10 -8 0
-16 5 -18 10 -5 17 -78 -42 -85 -69 -3 -14 -12 -39 -20 -54 -8 -16 -12 -31 -9
-34 3 -3 10 6 15 21 6 14 18 26 27 26 11 0 14 -5 9 -17 -4 -10 -10 -26 -12
-35 -3 -10 -10 -18 -15 -18 -5 0 -6 5 -2 12 4 7 3 8 -4 4 -7 -4 -12 -14 -12
-22 0 -8 -4 -14 -9 -14 -6 0 -8 -9 -6 -20 2 -11 0 -22 -6 -25 -11 -8 -12 35 0
54 10 15 2 53 -9 46 -16 -10 -2 47 19 75 22 31 27 45 12 36 -5 -4 -11 0 -14 6
-3 8 -9 1 -16 -14 -12 -32 -22 -37 -14 -9 3 10 0 22 -6 25 -6 4 -11 1 -11 -6
0 -8 -7 -23 -15 -34 -13 -17 -13 -15 -3 19 9 28 9 40 0 47 -7 6 -10 7 -7 4 7
-10 -26 -38 -46 -39 -22 -2 -23 0 -9 26 7 11 7 19 1 19 -5 0 -14 -12 -19 -27
-10 -27 -11 -28 -17 -6 -4 13 -11 20 -16 17 -5 -3 -9 5 -9 18 l0 23 20 -25
c18 -23 20 -24 21 -5 1 11 1 26 0 32 -1 7 3 21 8 32 9 17 8 19 -15 16 -16 -1
-28 3 -32 14 -5 12 -8 8 -12 -14 -4 -21 -11 -30 -25 -30 -14 0 -19 6 -17 19 3
14 -1 17 -15 12 -14 -6 -16 -5 -5 5 18 19 15 28 -8 22 -14 -4 -20 0 -20 10 0
23 11 48 19 43 4 -3 12 4 19 14 9 14 8 19 -3 24 -9 3 -15 -1 -15 -9 0 -8 -11
-22 -25 -31 -14 -9 -25 -23 -25 -30 0 -8 -5 -14 -11 -14 -7 0 -18 -8 -26 -17
-13 -17 -13 -17 -11 2 2 11 12 25 23 32 18 11 18 12 3 13 -21 0 -22 9 -4 32 7
10 17 14 22 10 4 -4 2 1 -5 11 -15 20 -43 23 -35 4 2 -7 -3 -21 -12 -32 -8
-11 -12 -14 -8 -6 5 11 3 13 -9 8 -10 -4 -17 -2 -17 5 0 6 -10 3 -21 -8 -22
-19 -22 -19 -8 4 8 12 19 20 26 18 6 -3 16 1 22 7 7 9 0 12 -32 10 -25 -2 -35
0 -25 5 15 6 16 10 4 32 -7 14 -19 24 -27 22 -8 -1 -6 4 5 13 11 8 24 15 30
15 6 0 6 4 -1 11 -8 8 -17 7 -31 -2 -25 -16 -40 -5 -22 16 16 19 2 19 -30 -1
-14 -8 -17 -13 -7 -10 20 6 22 -5 5 -22 -9 -9 -9 -15 -3 -20 6 -4 10 -13 9
-19 -1 -7 -2 -19 -3 -27 -1 -18 -31 -30 -44 -17 -6 6 -2 14 12 23 27 16 27 31
1 23 -11 -4 -20 -2 -20 4 0 6 5 11 10 11 6 0 10 9 10 20 0 11 -4 20 -10 20 -5
0 -7 14 -3 33 6 28 5 31 -10 19 -14 -12 -15 -8 -12 32 1 25 -1 44 -5 41 -19
-11 -18 27 1 46 18 18 18 20 2 17 -10 -2 -17 2 -16 9 2 7 -4 10 -12 7 -8 -4
-15 -1 -15 6 0 9 -4 9 -17 -1 -15 -12 -16 -12 -10 5 6 16 5 17 -8 6 -13 -10
-15 -9 -15 9 0 12 5 31 11 42 10 19 9 20 -12 9 -20 -11 -21 -10 -17 14 3 16
-1 31 -10 38 -13 10 -14 10 -8 1 4 -7 2 -13 -3 -13 -14 0 -14 13 -1 26 6 6 4
29 -7 67 -10 37 -20 54 -26 48 -5 -5 -5 -19 -1 -32 4 -13 8 -26 9 -29 0 -3 3
-9 6 -15 4 -5 3 -19 -2 -30 -7 -18 -8 -18 -8 5 -1 20 -3 22 -11 10 -8 -11 -9
-7 -4 15 6 29 6 29 -9 10 -16 -19 -16 -18 -17 25 l0 45 -16 -30 c-22 -42 -24
-42 -21 -3 2 22 -1 35 -9 35 -9 0 -11 -10 -7 -31 7 -35 22 -68 23 -48 0 21 20
13 20 -9 0 -28 -19 -61 -31 -54 -5 4 -9 -3 -9 -14 0 -11 5 -23 10 -26 12 -8
10 -85 -2 -85 -4 0 -8 3 -9 8 0 4 -2 31 -4 60 -4 61 -2 57 -32 66 -18 6 -22 2
-26 -21 -2 -15 -4 -5 -4 22 0 28 3 55 7 60 9 14 -9 97 -20 90 -5 -3 -7 -12 -3
-20 3 -8 0 -15 -7 -15 -8 0 -10 8 -6 20 10 34 17 66 10 52 -8 -16 -54 52 -54
80 0 21 0 21 15 2 14 -18 15 -17 9 11 -4 17 -13 39 -20 49 -11 16 -11 23 -1
35 10 12 9 14 -5 8 -17 -6 -22 2 -19 31 1 6 -7 12 -19 12 -11 0 -20 4 -20 10
0 5 7 7 15 4 19 -8 19 6 2 30 -11 15 -17 17 -35 7 -18 -10 -21 -9 -16 4 4 8
13 15 21 15 10 0 13 6 9 18 -5 14 -4 14 9 -2 15 -19 15 -19 15 2 0 13 -6 25
-14 28 -8 3 -17 13 -21 22 -5 14 -4 15 6 5 7 -7 18 -13 23 -13 6 0 5 4 -2 9
-8 5 -15 39 -18 92 -8 134 -9 143 -23 167 -7 13 -10 26 -7 30 3 3 6 0 6 -6 0
-7 10 -12 22 -12 20 0 21 1 3 20 -10 11 -15 20 -10 20 4 0 0 11 -9 25 -16 24
-16 27 -1 42 11 11 15 25 10 42 -3 14 -7 34 -8 43 -1 9 -4 16 -7 16 -20 -2
-21 4 -4 17 18 14 17 14 -9 4 -32 -14 -50 -3 -24 15 16 12 21 66 7 66 -4 0 -6
21 -6 48 1 32 -3 46 -11 44 -18 -3 -16 15 2 22 8 3 15 14 15 24 0 10 5 23 12
30 8 8 8 15 1 24 -11 14 -10 329 1 347 4 6 2 11 -4 11 -6 0 -9 8 -6 18 3 9 7
39 10 65 3 27 8 53 11 58 4 5 1 9 -5 9 -5 0 1 18 15 40 19 31 22 40 10 40 -11
0 -13 8 -8 33 8 44 21 67 38 67 9 0 15 9 15 21 0 15 5 19 15 15 8 -3 15 -1 15
4 0 6 6 10 14 10 8 0 18 5 22 12 4 6 3 8 -4 5 -18 -12 -39 3 -37 26 1 12 3 28
4 35 0 7 6 10 11 7 6 -3 10 -1 10 4 0 6 10 12 23 12 21 2 21 2 -2 6 -19 4 -21
7 -10 14 12 8 12 10 -1 19 -13 9 -13 10 0 10 13 0 13 1 0 10 -12 8 -10 10 9
10 13 0 21 3 17 7 -4 4 8 13 26 20 31 11 32 12 10 19 l-23 7 27 13 c14 8 35
14 45 14 11 0 19 6 19 14 0 11 10 14 40 10 31 -4 40 -1 40 10 0 8 8 17 18 20
9 3 -5 3 -33 1 -35 -3 -45 -2 -35 5 8 5 34 10 56 10 27 0 51 7 68 21 23 18 35
20 79 15 31 -4 47 -3 39 2 -11 7 -10 10 3 16 25 9 57 7 50 -3 -8 -14 7 -20 55
-25 25 -2 51 -13 66 -27 15 -14 24 -17 24 -10 0 11 4 11 18 0 15 -13 16 -12 3
4 -21 26 7 22 36 -5 18 -17 34 -22 61 -19 47 4 50 7 26 27 -18 14 -18 15 4 4
12 -6 22 -15 22 -20 0 -5 8 -11 18 -13 12 -3 10 -5 -8 -7 l-25 -2 25 -8 c14
-4 39 -8 57 -9 17 -1 33 -7 36 -13 3 -10 7 -10 20 1 19 15 12 35 -9 27 -7 -3
-16 0 -20 6 -4 7 -3 8 4 4 7 -4 12 -2 12 4 0 6 10 4 25 -6 14 -9 22 -20 19
-25 -3 -5 1 -9 10 -9 8 0 17 -6 19 -12 3 -8 6 -6 6 5 1 19 16 23 26 7 3 -5 13
-10 21 -10 11 0 7 8 -11 27 -25 27 -35 60 -15 48 7 -4 9 3 5 22 -5 25 -4 26 5
6 5 -13 14 -33 19 -45 9 -23 10 -23 10 3 1 15 -7 37 -17 50 -23 31 -44 80 -37
87 3 3 10 -9 16 -27 6 -18 14 -30 17 -27 7 7 -18 66 -29 66 -4 0 -11 9 -14 20
-3 11 -11 20 -16 20 -6 0 -5 -9 2 -22 9 -20 8 -19 -13 3 -25 29 -87 72 -75 52
15 -23 -53 -7 -70 16 -8 12 -21 20 -29 17 -8 -3 -14 1 -14 9 0 9 -10 15 -22
16 -130 5 -164 5 -168 -1 -9 -12 -81 -20 -74 -8 5 7 0 9 -15 5 -14 -3 -24 0
-28 9 -4 10 -10 11 -23 4 -11 -6 -21 -6 -24 -1 -4 5 -3 11 1 14 5 2 1 2 -7 -1
-8 -2 -26 -7 -40 -9 -14 -2 -35 -9 -47 -15 -17 -8 -30 -8 -48 0 -32 15 -48 15
-40 2 3 -5 2 -10 -4 -10 -5 0 -12 6 -15 13 -3 9 -9 7 -19 -5 -15 -19 -32 -25
-22 -8 3 6 1 10 -5 10 -8 0 -10 -10 -6 -27 3 -16 3 -22 0 -15 -3 6 -11 9 -17
5 -7 -4 -8 0 -4 11 6 14 3 17 -8 12 -10 -3 -18 1 -21 12 -3 9 -10 25 -15 35
-6 11 -8 21 -5 24 3 3 -1 17 -8 32 -21 40 -31 95 -16 86 9 -5 10 -1 5 16 -7
23 -6 23 7 5 14 -18 15 -15 14 27 -1 26 -4 47 -8 47 -15 0 -8 41 7 46 18 7 20
30 3 37 -8 4 -4 8 10 12 22 7 31 25 13 25 -5 0 -9 13 -9 30 1 19 5 27 12 22
16 -10 66 -11 66 -2 0 11 -30 21 -41 14 -15 -9 -10 31 8 67 10 19 16 42 15 52
-2 9 2 17 7 17 6 0 11 7 11 15 0 7 8 19 18 24 15 9 15 10 -5 11 -38 0 -26 17
17 24 38 6 39 8 33 36 -3 16 -1 36 4 42 6 7 13 20 16 29 4 13 1 16 -13 12 -16
-4 -18 0 -13 29 4 30 17 47 35 48 3 0 4 -10 1 -22 l-6 -23 27 24 c14 14 26 31
26 39 0 8 8 27 17 43 16 26 16 31 3 40 -12 8 -10 9 7 4 16 -4 23 -1 28 14 6
21 51 55 75 57 8 1 23 2 33 3 9 0 17 7 17 15 0 9 8 13 23 10 12 -2 17 -2 10 2
-19 9 -3 34 22 34 24 0 81 25 107 48 13 11 21 12 31 4 9 -8 25 -8 57 0 55 14
56 14 40 33 -11 13 -10 14 4 9 9 -3 16 -10 16 -16 0 -5 5 -6 10 -3 6 4 8 10 5
15 -3 4 11 4 30 0 19 -4 33 -5 31 -1 -3 4 4 12 14 19 12 7 21 8 25 2 3 -6 11
-10 16 -10 6 0 8 4 5 9 -4 5 4 7 16 3 14 -3 19 -1 14 6 -5 8 -2 10 8 6 9 -3
13 -11 9 -18 -3 -6 4 -2 17 9 13 11 21 16 18 10 -3 -5 -2 -19 3 -30 7 -19 8
-18 8 4 1 17 5 21 17 17 8 -3 12 -2 9 4 -9 15 8 12 35 -7 l25 -17 -19 22 c-24
28 -3 30 34 5 24 -17 25 -17 10 2 -8 11 -19 23 -25 27 -5 4 -6 10 -2 14 4 4
15 0 26 -10 17 -16 19 -16 25 1 6 14 9 15 15 4 5 -7 14 -10 21 -6 8 5 9 10 1
18 -6 6 -11 15 -11 20 0 6 14 -5 32 -23 19 -20 27 -35 20 -38 -7 -2 -12 -8
-12 -14 0 -7 5 -7 13 1 8 6 16 9 19 6 9 -10 2 30 -10 53 -12 21 0 33 13 12 11
-17 28 -11 21 7 -5 13 0 11 18 -6 27 -25 35 -48 14 -35 -10 6 -9 3 0 -8 14
-17 42 -14 42 4 0 6 6 5 15 -2 14 -12 20 -7 16 14 -1 5 5 4 13 -4 11 -8 16 -9
16 -1 0 19 17 12 23 -9 6 -25 37 -27 38 -2 1 16 2 16 6 0 3 -14 7 -15 18 -5 7
6 10 17 7 22 -3 6 2 4 11 -4 15 -12 17 -10 18 15 0 25 2 26 8 9 5 -11 7 -23 4
-27 -2 -5 1 -8 6 -8 6 0 11 3 11 8 0 4 5 14 10 22 8 13 11 12 24 -5 13 -19 14
-18 9 8 -4 20 -1 27 11 27 11 0 16 9 16 28 0 21 2 24 10 12 6 -8 7 -28 4 -45z
m5454 -268 c39 -47 8 -117 -52 -117 -39 0 -86 33 -86 61 0 34 44 69 88 69 22
0 44 -6 50 -13z m-3364 -2179 c6 -4 7 -8 1 -8 -6 0 -9 -39 -7 -105 3 -65 -2
-142 -12 -202 -9 -54 -20 -147 -26 -206 -11 -122 -20 -162 -54 -239 -22 -49
-56 -93 -56 -71 0 5 -10 9 -21 10 -20 2 -21 -1 -15 -56 7 -63 0 -93 -34 -131
-12 -14 -25 -29 -28 -35 -11 -16 -78 -44 -122 -51 -35 -6 -41 -4 -49 17 -8 19
-10 20 -10 6 -1 -10 -5 -16 -10 -13 -5 4 -12 0 -15 -6 -3 -7 -3 -3 0 10 3 13
7 51 8 85 2 35 9 73 15 86 7 12 10 25 7 29 -3 3 -6 -1 -6 -8 0 -7 -3 -10 -6
-7 -4 4 -1 13 6 22 8 9 10 29 7 49 -3 19 -1 36 4 38 5 2 12 50 16 108 3 58 9
110 14 115 15 20 39 172 31 194 -4 9 -1 12 7 7 8 -5 11 -3 10 5 -3 21 12 52
36 74 29 27 37 52 24 77 -7 13 -7 18 -1 14 6 -4 15 1 20 10 5 9 13 17 18 17 5
1 9 19 8 40 -1 45 7 41 16 -10 7 -35 8 -33 9 20 1 44 4 56 14 50 25 -16 38
-12 35 11 -3 24 17 56 34 56 5 0 7 -4 4 -8 -3 -5 5 -8 17 -7 12 1 25 -3 29 -9
5 -7 8 -4 8 6 0 10 12 24 28 32 19 11 22 15 10 16 -19 0 -23 24 -11 57 5 14
11 6 21 -32 8 -27 20 -53 26 -57z m-4139 -290 c4 -13 14 -38 22 -57 9 -19 15
-57 15 -85 0 -33 2 -44 7 -31 7 17 11 13 35 -27 24 -41 27 -59 32 -159 3 -80
9 -118 19 -129 19 -21 27 -247 9 -254 -6 -2 -11 -17 -11 -31 0 -25 -16 -44
-37 -45 -4 0 -6 7 -2 15 3 8 0 15 -7 16 -9 0 -9 2 0 6 8 3 11 14 7 27 -3 13 2
40 10 61 9 21 16 48 16 61 0 12 5 26 10 29 16 10 12 25 -5 19 -10 -4 -15 0
-15 14 0 11 -6 27 -13 34 -7 7 -20 31 -30 53 -15 37 -16 38 -16 13 -1 -16 3
-28 8 -28 5 0 12 -11 15 -25 4 -14 11 -25 16 -25 17 0 11 -36 -9 -54 -25 -23
-49 -11 -61 32 -23 77 -58 518 -46 567 8 31 23 32 31 3z"/>
<path d="M6050 8263 c0 -22 -5 -29 -20 -30 -14 -1 -20 5 -21 20 -1 20 -2 20
-13 -5 -11 -26 -12 -26 -24 -8 -6 10 -21 24 -33 30 -19 11 -20 10 -10 -9 6
-11 16 -23 21 -26 6 -3 10 -11 10 -17 0 -7 -5 -6 -15 2 -11 9 -18 9 -35 -3
-11 -7 -17 -17 -13 -20 11 -12 -7 -8 -36 8 -26 13 -29 13 -27 -3 0 -9 8 -22
16 -29 13 -10 13 -12 -2 -18 -9 -4 -21 -4 -26 -1 -5 3 -7 -6 -4 -19 5 -30 3
-30 47 -5 20 11 44 20 55 20 11 0 20 5 20 11 0 5 5 7 10 4 6 -3 10 -2 10 3 0
23 26 5 28 -19 1 -16 7 -40 12 -54 9 -24 8 -25 -23 -25 -17 1 -52 5 -77 10
-48 9 -100 3 -100 -11 0 -5 12 -4 26 1 32 13 47 13 39 0 -3 -5 8 -9 27 -8 18
0 63 -6 99 -16 67 -16 93 -17 117 -3 7 5 12 3 12 -4 0 -6 8 -9 18 -7 10 3 24
-2 32 -10 12 -13 15 -13 21 4 4 10 8 13 8 6 1 -13 59 -13 67 0 9 14 26 8 20
-7 -4 -10 1 -15 14 -15 11 0 20 5 20 10 0 6 8 10 18 11 11 0 12 2 4 6 -7 3
-19 0 -26 -6 -9 -8 -13 -7 -13 4 0 28 184 23 240 -6 9 -5 17 -7 17 -3 0 3 6 2
13 -4 7 -6 18 -7 26 -2 8 4 20 6 28 3 7 -3 13 1 13 10 0 10 8 13 28 11 15 -2
21 -1 15 2 -7 3 -13 13 -13 21 0 11 -7 14 -25 11 -13 -3 -22 -1 -19 3 3 5 -2
9 -10 9 -8 0 -19 6 -23 14 -4 8 -15 14 -23 13 -8 -1 -16 3 -18 8 -6 17 -31 27
-55 20 -17 -5 -19 -4 -7 4 12 9 10 11 -11 11 -19 0 -26 5 -25 16 1 12 -8 17
-30 18 -21 1 -30 -3 -27 -11 3 -7 0 -13 -7 -13 -8 0 -10 10 -7 27 5 25 4 26
-8 10 -17 -23 -30 -5 -16 21 10 19 6 32 -10 32 -4 0 -11 -14 -14 -31 -5 -23
-9 -28 -16 -18 -6 10 -9 11 -9 2 0 -7 -5 -13 -11 -13 -7 0 -9 11 -5 30 6 33
-9 42 -19 10 -7 -22 -55 -29 -55 -7 0 9 -3 8 -9 -2 -7 -11 -12 -10 -27 5 -16
16 -37 22 -46 14 -2 -1 -11 -3 -20 -5 -14 -2 -18 4 -19 23 0 26 -1 26 -9 5
-11 -27 -22 -31 -18 -7 2 10 -3 19 -9 21 -9 3 -13 -5 -13 -24z"/>
<path d="M4212 8212 c-6 -19 -6 -35 0 -46 5 -10 7 -21 3 -24 -4 -4 -10 -1 -12
6 -3 6 -9 10 -14 6 -5 -3 -9 9 -9 25 0 17 -3 31 -8 31 -15 0 -32 -41 -26 -65
5 -21 3 -24 -10 -19 -10 4 -15 12 -12 20 3 7 -2 18 -10 24 -11 10 -14 9 -14
-3 0 -10 -6 -14 -15 -11 -8 4 -15 1 -15 -5 0 -8 -5 -8 -18 0 -15 10 -23 7 -45
-15 -15 -15 -27 -32 -28 -39 0 -7 -9 -25 -20 -42 -10 -16 -22 -38 -26 -47 -5
-9 -12 -17 -18 -17 -5 -1 -10 -7 -10 -13 0 -7 -4 -13 -10 -13 -5 -1 -19 -7
-31 -14 -25 -17 -21 -61 7 -68 11 -3 19 -9 19 -14 0 -13 21 -11 54 6 15 8 37
15 47 15 11 0 22 7 25 15 4 8 10 15 15 15 4 0 6 -6 3 -14 -3 -8 -1 -17 5 -21
6 -3 11 -1 11 5 0 7 7 10 15 7 17 -7 68 17 58 26 -3 4 3 7 15 7 14 0 20 -5 16
-14 -6 -15 23 -16 60 0 13 5 17 4 13 -3 -5 -8 13 -6 50 3 75 17 73 17 73 -6 0
-24 15 -26 24 -4 4 10 12 14 22 10 11 -4 18 1 21 14 3 11 9 17 14 14 5 -3 7
-10 4 -15 -4 -5 -1 -9 5 -9 8 0 10 9 6 24 -8 33 3 39 25 13 10 -12 18 -16 19
-9 0 6 3 11 8 11 24 -4 41 3 40 19 0 36 15 123 23 127 4 3 26 1 48 -4 33 -7
41 -6 41 5 0 8 5 14 12 14 6 0 8 3 5 6 -4 4 -14 1 -22 -6 -9 -7 -15 -9 -14 -4
5 26 -2 35 -21 29 -11 -3 -20 -2 -20 3 0 5 -6 10 -12 9 -7 0 -26 1 -42 1 -25
2 -27 4 -15 19 10 12 11 15 1 9 -7 -4 -20 -2 -29 6 -12 9 -15 9 -9 1 5 -9 1
-13 -12 -13 -22 0 -37 26 -22 35 6 4 10 11 10 17 0 6 -10 0 -23 -13 -22 -23
-38 -31 -64 -32 -7 0 -13 -6 -13 -12 0 -7 -13 -12 -28 -13 -24 0 -32 6 -50 41
-21 41 -21 41 -31 17 -6 -17 -10 -19 -10 -8 -1 29 -19 29 -29 0z m43 -149 c4
-16 15 -47 26 -71 l19 -43 -67 2 c-37 1 -87 7 -111 13 l-43 11 44 37 c46 38
107 78 119 78 4 0 10 -12 13 -27z"/>
<path d="M4995 8216 c-16 -11 -17 -17 -7 -29 7 -8 10 -26 8 -39 -8 -32 -17
-79 -21 -106 -2 -13 -9 -29 -15 -37 -6 -8 -8 -20 -4 -26 4 -7 3 -9 -4 -5 -6 4
-10 -1 -10 -11 1 -10 -9 -40 -22 -68 -12 -27 -23 -52 -23 -55 0 -11 -37 -74
-49 -81 -9 -6 -8 -11 3 -25 8 -9 13 -19 11 -21 -2 -3 -1 -7 2 -10 3 -4 6 1 6
9 0 9 7 19 16 22 9 3 14 12 11 20 -3 8 5 24 19 37 23 22 36 15 13 -8 -8 -8 -7
-16 2 -31 11 -17 10 -26 -7 -57 -15 -28 -16 -37 -6 -44 10 -6 10 -10 -3 -21
-10 -9 -15 -30 -15 -71 0 -33 -4 -59 -8 -59 -4 0 -15 -13 -25 -29 -10 -17 -38
-51 -62 -78 -48 -51 -58 -71 -25 -51 11 7 20 19 20 27 0 12 3 12 12 3 16 -16
52 -16 42 0 -5 7 -2 9 9 5 9 -3 18 -1 21 6 3 8 5 8 5 -2 1 -11 4 -11 16 -1 8
7 12 16 9 22 -3 5 0 15 6 23 7 8 10 22 6 30 -3 9 -2 13 3 10 5 -3 13 0 17 6 3
6 0 15 -7 20 -11 6 -11 9 2 14 11 4 16 21 18 52 0 25 4 50 8 57 7 11 10 31 16
114 1 28 8 39 25 47 21 9 23 15 18 52 -4 29 -1 45 9 53 15 13 15 86 -1 111 -4
8 -3 9 4 5 8 -5 12 1 12 18 0 14 -5 28 -10 31 -7 4 -7 12 0 25 7 13 7 21 0 25
-7 4 -7 12 0 24 5 10 7 31 4 47 -3 16 -7 36 -8 43 -4 21 -19 24 -41 7z"/>
<path d="M5490 7003 c0 -9 -3 -13 -7 -10 -3 4 -13 -2 -20 -13 -8 -11 -19 -17
-25 -14 -7 5 -8 2 -3 -6 4 -7 2 -16 -6 -21 -11 -7 -6 -17 23 -46 38 -37 63
-39 40 -2 -7 11 -10 24 -7 29 3 5 1 19 -5 30 -6 11 -8 20 -6 20 3 0 12 -12 20
-28 17 -33 28 -94 15 -86 -10 6 -12 -36 -3 -60 3 -9 11 -16 16 -16 6 0 7 8 3
18 -4 9 -9 23 -12 30 -3 6 0 12 6 12 6 0 10 -6 9 -12 -2 -7 3 -12 10 -10 6 1
12 -4 12 -12 0 -7 8 -16 18 -18 15 -4 17 0 14 22 -2 15 2 31 8 35 15 9 31 -14
25 -36 -3 -9 1 -22 10 -29 12 -10 15 -10 15 4 0 9 -4 16 -10 16 -5 0 -7 7 -4
15 8 19 44 -3 44 -27 0 -10 5 -18 10 -18 18 0 52 41 46 57 -3 8 -6 19 -6 24 0
5 -7 9 -15 9 -12 0 -13 -4 -5 -19 5 -11 10 -28 10 -38 0 -15 -2 -16 -10 -3 -5
8 -10 11 -10 6 0 -5 -9 -1 -20 9 -24 22 -27 43 -3 24 14 -12 16 -12 9 0 -17
28 -15 75 5 89 14 10 16 18 9 37 -6 16 -5 25 3 29 7 2 4 5 -7 5 -14 1 -17 -4
-14 -23 4 -22 2 -24 -21 -21 -14 2 -35 7 -46 11 -19 8 -19 7 -2 -10 9 -9 17
-22 17 -27 0 -5 7 -9 16 -9 10 0 14 -6 11 -14 -3 -7 0 -19 6 -25 7 -7 7 -11 1
-11 -16 0 -48 40 -68 83 -17 38 -46 50 -46 20 0 -15 -2 -15 -9 -4 -7 11 -10
10 -14 -5 -2 -10 -5 -2 -6 19 -1 35 -21 55 -21 20z"/>
<path d="M5010 6972 c0 -11 -3 -29 -7 -39 -6 -16 -5 -17 13 -3 12 9 11 5 -5
-13 -25 -28 -32 -32 -30 -19 3 20 -2 31 -14 26 -7 -2 -12 -19 -11 -41 0 -27
-6 -44 -28 -67 l-28 -31 11 27 c7 15 16 25 22 21 6 -4 8 7 5 28 -3 19 -2 44 3
55 6 17 4 23 -12 27 -21 6 -25 -3 -9 -19 7 -7 5 -17 -5 -30 -11 -14 -14 -15
-15 -4 0 9 -5 5 -13 -9 -6 -14 -19 -26 -27 -28 -11 -3 -10 0 3 10 15 13 16 18
6 35 -15 24 -28 14 -48 -36 -11 -25 -16 -30 -23 -20 -6 8 -7 0 -3 -24 4 -24 2
-38 -5 -38 -5 0 -10 -5 -10 -11 0 -5 5 -7 10 -4 16 10 12 -11 -5 -25 -21 -18
-32 15 -13 38 16 18 13 46 -3 36 -13 -8 -11 4 6 29 10 16 11 26 4 37 -9 12
-10 12 -5 -3 3 -11 2 -16 -4 -12 -6 3 -10 13 -10 21 0 8 -5 12 -10 9 -6 -4 -8
-11 -4 -16 3 -5 0 -8 -7 -7 -8 2 -14 -7 -14 -24 -1 -14 -7 -34 -15 -44 -8 -10
-10 -15 -3 -11 8 5 11 -1 9 -20 -2 -16 -4 -33 -5 -39 0 -7 -8 -14 -16 -18 -13
-5 -14 -2 -1 22 11 21 12 32 3 47 -14 26 -37 49 -37 38 0 -5 5 -14 11 -20 7
-7 6 -12 -3 -16 -10 -3 -14 4 -13 27 0 17 5 30 11 29 5 -1 15 12 21 28 10 26
9 29 -9 29 -14 0 -18 -5 -14 -16 3 -8 2 -12 -4 -9 -6 3 -10 1 -10 -6 0 -6 -12
-23 -27 -37 -18 -15 -21 -22 -10 -19 20 7 21 -3 7 -53 -8 -30 -8 -33 4 -17 13
17 14 17 20 0 4 -10 4 -14 0 -11 -11 12 -30 -15 -36 -52 -6 -34 -6 -34 5 -7
14 35 27 35 27 -2 0 -35 25 -48 40 -20 6 11 15 17 20 14 6 -3 7 1 3 11 -4 10
0 20 11 26 9 5 13 14 10 20 -5 7 -2 8 6 3 10 -6 12 -4 6 11 -7 18 -6 18 10 2
14 -14 15 -20 5 -32 -15 -18 -5 -40 14 -32 8 3 16 1 19 -5 2 -5 3 -4 2 3 -2 7
-9 12 -15 11 -17 -4 -13 11 9 30 27 22 33 22 20 -3 -7 -14 -8 -26 -1 -38 10
-16 10 -16 11 1 0 9 5 17 10 17 6 0 10 6 10 14 0 8 8 24 18 36 15 18 19 20 19
7 0 -10 -4 -17 -9 -17 -4 0 -8 -5 -8 -10 0 -6 8 -5 20 2 11 7 20 18 20 25 0 6
4 14 8 17 5 3 7 -9 6 -27 -2 -18 -1 -23 2 -13 5 15 8 16 15 5 8 -11 11 -10 21
6 11 19 11 19 19 0 7 -18 8 -17 8 5 1 14 6 32 11 40 8 11 9 8 4 -12 -8 -35 4
-71 21 -64 8 3 16 0 19 -7 2 -7 5 -1 5 12 1 16 5 21 16 17 9 -3 15 0 15 9 0
17 16 20 25 5 4 -6 11 -7 17 -4 7 4 5 10 -6 16 -18 10 -21 49 -5 65 19 19 42
-13 42 -57 0 -34 2 -37 14 -24 16 16 37 19 28 4 -3 -5 -4 -10 -1 -10 3 0 14
18 25 39 16 34 16 41 4 45 -20 8 -23 8 -23 -5 0 -5 5 -7 12 -3 7 4 8 3 4 -4
-11 -19 -36 -15 -29 5 4 10 2 14 -4 10 -14 -9 -43 2 -43 15 0 6 6 6 14 -1 17
-14 25 -4 21 24 -6 39 -17 65 -27 59 -5 -3 -6 -15 -2 -27 6 -19 5 -20 -9 -9
-12 10 -16 10 -21 0 -3 -7 -4 -4 -1 7 3 12 -2 41 -10 65 -8 25 -13 35 -11 23
2 -13 2 -23 0 -23 -3 0 -9 10 -14 23 -8 19 -9 19 -9 3 -1 -18 -2 -18 -21 -1
-19 18 -20 17 -20 -3z"/>
<path d="M4525 6786 c-25 -14 -35 -28 -29 -38 3 -4 1 -8 -3 -8 -5 0 -17 -14
-27 -30 -9 -17 -22 -28 -27 -24 -5 3 -7 10 -3 15 3 5 0 8 -8 7 -7 -2 -16 -10
-20 -19 -6 -17 -48 -33 -48 -20 0 5 11 20 25 35 22 24 23 26 5 26 -11 0 -20
-7 -20 -15 0 -8 -4 -15 -10 -15 -5 0 -6 7 -3 17 4 11 3 14 -5 9 -6 -4 -17 -26
-23 -49 -6 -23 -14 -37 -16 -31 -2 7 -13 10 -24 7 -15 -4 -18 -2 -13 12 5 13
9 14 15 3 7 -10 9 -9 9 5 0 23 -17 22 -30 -2 -7 -13 -7 -22 0 -26 5 -3 10 -12
9 -18 0 -9 -2 -9 -6 1 -2 6 -8 12 -12 12 -11 0 -32 -50 -26 -60 3 -5 -1 -11
-7 -13 -10 -4 -10 -6 0 -6 7 -1 17 11 23 25 5 15 12 25 15 22 2 -3 0 -17 -6
-32 -13 -35 -13 -86 0 -86 6 0 10 10 10 22 0 12 3 18 6 15 8 -8 44 36 44 53 0
6 -5 8 -12 4 -7 -4 -8 -3 -4 5 4 6 12 9 17 6 5 -4 9 8 9 25 0 26 2 29 14 18 9
-8 11 -17 5 -24 -5 -6 -6 -14 -2 -17 3 -4 0 -7 -7 -7 -9 0 -7 -5 5 -14 18 -13
45 -12 43 2 -2 22 3 44 10 38 4 -4 8 -12 8 -17 3 -23 6 -23 20 1 l15 25 -6
-25 c-6 -23 -5 -23 8 -7 8 9 19 17 26 17 6 0 11 5 11 10 0 6 -7 10 -15 10 -9
0 -15 9 -15 21 0 18 2 19 15 9 8 -7 15 -8 15 -3 0 5 7 18 16 29 14 17 15 17
10 1 -3 -11 -2 -16 4 -12 14 9 13 5 -10 -43 -11 -22 -20 -47 -20 -54 1 -7 7 1
15 17 7 17 14 26 15 20 2 -11 19 48 23 80 2 11 8 19 14 18 7 -2 10 6 8 19 -3
12 0 27 5 33 16 19 -11 35 -35 21z"/>
<path d="M8075 3873 c4 -9 -3 -13 -22 -13 -23 0 -25 -2 -13 -11 12 -8 9 -9
-12 -5 -22 5 -26 3 -22 -9 4 -8 12 -15 20 -15 8 0 14 -4 14 -10 0 -5 -7 -7
-15 -4 -8 4 -15 2 -15 -4 0 -6 14 -13 30 -17 17 -4 30 -11 30 -16 0 -6 5 -7
10 -4 6 4 17 1 25 -5 8 -7 15 -9 15 -4 0 5 4 4 8 -2 10 -15 67 -44 87 -44 9 0
14 -4 11 -8 -5 -8 28 -42 39 -42 3 0 5 14 5 31 0 24 -4 30 -15 25 -9 -3 -15 0
-15 8 0 8 -10 11 -29 8 -29 -4 -47 10 -36 28 5 8 11 7 21 -1 17 -14 48 -4 38
13 -5 8 -2 9 9 5 24 -9 21 0 -4 14 -15 8 -19 8 -15 0 10 -16 -10 -14 -27 3
-14 14 -40 7 -36 -10 3 -19 -1 -34 -10 -34 -5 0 -8 15 -5 34 3 28 0 36 -16 41
-11 4 -18 11 -15 16 4 5 1 9 -6 9 -6 0 -18 8 -26 18 -8 9 -12 11 -8 5z"/>
<path d="M440 1081 c0 -11 6 -22 13 -24 8 -4 8 -6 0 -6 -11 -1 -10 -31 2 -88
3 -12 1 -25 -5 -28 -15 -9 -12 -45 3 -45 9 0 12 -9 9 -28 -2 -16 3 -45 12 -65
8 -21 13 -44 10 -51 -3 -8 0 -25 7 -37 6 -12 18 -48 25 -78 8 -31 16 -63 19
-71 16 -52 33 -135 29 -140 -3 -3 -12 4 -20 14 -7 11 -17 17 -20 13 -3 -3 5
-18 19 -33 24 -25 34 -54 43 -117 2 -16 8 -36 14 -46 5 -10 6 -21 3 -25 -4 -4
2 -26 14 -49 37 -74 55 -125 49 -136 -4 -7 -1 -9 8 -5 9 3 17 -2 21 -15 3 -12
11 -21 17 -21 6 0 3 11 -6 25 -9 13 -16 31 -16 40 0 9 -4 14 -9 11 -8 -5 -54
120 -56 149 0 6 -4 13 -8 16 -14 10 -22 93 -9 85 8 -5 10 -2 6 8 -3 9 -9 14
-13 12 -3 -2 -6 12 -5 31 2 31 -15 108 -33 153 -3 8 -6 18 -5 22 1 4 -2 18 -7
31 -17 43 -22 99 -9 91 6 -4 4 3 -5 17 -9 13 -17 35 -17 49 0 14 -7 36 -16 48
-8 12 -11 22 -6 22 9 0 9 24 -1 50 -3 8 -5 22 -5 30 1 8 -2 25 -6 38 -4 13 -3
22 3 22 6 0 4 15 -5 36 -10 25 -12 40 -5 47 6 6 5 14 -5 24 -8 8 -12 18 -9 23
3 4 -2 10 -10 14 -10 3 -15 -1 -15 -13z"/>
<path d="M82 395 c-15 -32 -15 -38 0 -29 7 4 8 3 4 -5 -4 -6 2 -24 13 -40 12
-16 21 -34 21 -40 0 -6 5 -11 10 -11 6 0 10 -5 10 -10 0 -6 14 -29 30 -52 17
-22 30 -47 30 -54 0 -7 8 -18 18 -23 9 -6 11 -11 5 -11 -23 0 -14 -15 16 -28
21 -9 28 -18 24 -29 -4 -10 -2 -14 3 -10 6 3 18 -7 28 -24 9 -16 24 -29 32
-29 23 0 16 19 -15 46 -16 13 -32 35 -35 49 -4 14 -10 25 -15 25 -5 0 -12 13
-16 30 -4 17 -11 30 -16 30 -4 0 -16 15 -25 33 -10 17 -22 37 -29 42 -6 6 -17
30 -24 55 -7 24 -23 59 -35 77 l-23 33 -11 -25z"/>
</g>
</svg>
